<svg width="146" height="32" viewBox="0 0 146 32" fill="none" xmlns="http://www.w3.org/2000/svg">
<path d="M11 0.25C11.5312 0.25 11.9062 0.375 12.125 0.625C12.3594 0.859375 12.4766 1.26562 12.4766 1.84375V27.8125H20C20.5312 27.8125 20.9062 27.9375 21.125 28.1875C21.3594 28.4219 21.4766 28.8281 21.4766 29.4062C21.4766 29.9844 21.3594 30.3984 21.125 30.6484C20.9062 30.8828 20.5312 31 20 31H1.625C1.09375 31 0.710938 30.8828 0.476562 30.6484C0.257812 30.3984 0.148438 29.9844 0.148438 29.4062C0.148438 28.8281 0.257812 28.4219 0.476562 28.1875C0.710938 27.9375 1.09375 27.8125 1.625 27.8125H8.96094V3.4375H2.5625C2.03125 3.4375 1.64844 3.32031 1.41406 3.08594C1.19531 2.83594 1.08594 2.42188 1.08594 1.84375C1.08594 1.26562 1.19531 0.859375 1.41406 0.625C1.64844 0.375 2.03125 0.25 2.5625 0.25H11Z" fill="black"/>
<path d="M36.8656 8.82812C39.8031 8.82812 42.0062 9.48438 43.475 10.7969C44.9437 12.1094 45.6781 14.0547 45.6781 16.6328V25.9609C45.6781 27.1953 46.1937 27.8125 47.225 27.8125H48.0453C48.5766 27.8125 48.9516 27.9375 49.1703 28.1875C49.4047 28.4219 49.5219 28.8281 49.5219 29.4062C49.5219 29.9844 49.4047 30.3984 49.1703 30.6484C48.9516 30.8828 48.5766 31 48.0453 31H46.5453C45.5297 31 44.6547 30.75 43.9203 30.25C43.2016 29.7344 42.7328 28.9844 42.5141 28C41.2328 29.125 39.8422 29.9922 38.3422 30.6016C36.8578 31.2109 35.2797 31.5156 33.6078 31.5156C32.0297 31.5156 30.6312 31.25 29.4125 30.7188C28.2094 30.1719 27.2641 29.3828 26.5766 28.3516C25.8891 27.3203 25.5453 26.0938 25.5453 24.6719C25.5453 22.2031 26.4281 20.3828 28.1937 19.2109C29.9594 18.0234 32.2406 17.4297 35.0375 17.4297C37.5219 17.4297 39.8969 17.8281 42.1625 18.625V16.6328C42.1625 15.1172 41.7328 14.0078 40.8734 13.3047C40.0297 12.5859 38.6625 12.2266 36.7719 12.2266C35.6 12.2266 34.3812 12.3906 33.1156 12.7188C31.85 13.0469 30.6469 13.5 29.5062 14.0781C29.2406 14.2188 28.9984 14.2891 28.7797 14.2891C28.2641 14.2891 27.8344 13.9141 27.4906 13.1641C27.3188 12.7891 27.2328 12.4766 27.2328 12.2266C27.2328 11.6797 27.5219 11.2578 28.1 10.9609C29.4125 10.2734 30.8187 9.75 32.3187 9.39062C33.8344 9.01562 35.35 8.82812 36.8656 8.82812ZM35.0609 20.7344C33.2641 20.7344 31.8422 21.0469 30.7953 21.6719C29.7641 22.2812 29.2484 23.2578 29.2484 24.6016C29.2484 25.7422 29.6391 26.6328 30.4203 27.2734C31.2172 27.8984 32.3266 28.2109 33.7484 28.2109C36.8578 28.2109 39.6625 26.9219 42.1625 24.3438V21.7891C41.1 21.4453 39.9594 21.1875 38.7406 21.0156C37.5219 20.8281 36.2953 20.7344 35.0609 20.7344Z" fill="black"/>
<path d="M71.5906 8.82812C72.2312 8.82812 72.6844 8.94531 72.95 9.17969C73.2156 9.41406 73.3484 9.80469 73.3484 10.3516V17.1484C73.3484 17.6953 73.2156 18.0859 72.95 18.3203C72.6844 18.5547 72.2312 18.6719 71.5906 18.6719C70.95 18.6719 70.4969 18.5547 70.2312 18.3203C69.9656 18.0859 69.8328 17.6953 69.8328 17.1484C69.8328 16.1953 69.5828 15.3516 69.0828 14.6172C68.5828 13.8828 67.8328 13.3125 66.8328 12.9062C65.8484 12.5 64.6609 12.2969 63.2703 12.2969C61.7703 12.2969 60.4266 12.6328 59.2391 13.3047C58.0516 13.9766 57.1219 14.9141 56.45 16.1172C55.7781 17.3203 55.4422 18.6719 55.4422 20.1719C55.4422 21.6875 55.7547 23.0469 56.3797 24.25C57.0203 25.4375 57.9109 26.3672 59.0516 27.0391C60.2078 27.7109 61.5359 28.0469 63.0359 28.0469C64.4734 28.0469 65.8641 27.8281 67.2078 27.3906C68.5672 26.9375 69.8016 26.2891 70.9109 25.4453C71.2391 25.1953 71.5437 25.0703 71.825 25.0703C72.2781 25.0703 72.7 25.3906 73.0906 26.0312C73.325 26.4219 73.4422 26.7969 73.4422 27.1562C73.4422 27.7031 73.1922 28.1562 72.6922 28.5156C71.4422 29.4531 69.9656 30.1875 68.2625 30.7188C66.5594 31.25 64.8172 31.5156 63.0359 31.5156C60.8016 31.5156 58.825 31.0234 57.1063 30.0391C55.4031 29.0547 54.0828 27.7031 53.1453 25.9844C52.2078 24.2656 51.7391 22.3281 51.7391 20.1719C51.7391 18.0156 52.2156 16.0781 53.1688 14.3594C54.1219 12.6406 55.45 11.2891 57.1531 10.3047C58.8719 9.32031 60.8328 8.82812 63.0359 8.82812C64.4266 8.82812 65.7 9.08594 66.8562 9.60156C68.0281 10.1016 69.0203 10.8203 69.8328 11.7578V10.3516C69.8328 9.80469 69.9656 9.41406 70.2312 9.17969C70.4969 8.94531 70.95 8.82812 71.5906 8.82812Z" fill="black"/>
<path d="M89.7453 8.82812C92.0109 8.82812 93.9406 9.28906 95.5344 10.2109C97.1438 11.1172 98.3781 12.3828 99.2375 14.0078C100.097 15.6172 100.589 17.4766 100.714 19.5859C100.714 20.1172 100.597 20.4922 100.363 20.7109C100.144 20.9297 99.7688 21.0391 99.2375 21.0391H82.2688C82.3781 23.3672 83.0656 25.1328 84.3313 26.3359C85.6125 27.5234 87.4172 28.1172 89.7453 28.1172C91.1828 28.1172 92.6047 27.9375 94.0109 27.5781C95.4172 27.2031 96.6516 26.7109 97.7141 26.1016C97.9797 25.9609 98.2219 25.8906 98.4406 25.8906C98.9875 25.8906 99.4328 26.3047 99.7766 27.1328C99.9172 27.4609 99.9875 27.7578 99.9875 28.0234C99.9875 28.6484 99.6438 29.1328 98.9563 29.4766C97.7531 30.0859 96.3313 30.5781 94.6906 30.9531C93.05 31.3281 91.4016 31.5156 89.7453 31.5156C87.3859 31.5156 85.3703 31.0625 83.6984 30.1562C82.0266 29.25 80.7531 27.9453 79.8781 26.2422C79.0031 24.5391 78.5656 22.5156 78.5656 20.1719C78.5656 17.9375 79.0422 15.9609 79.9953 14.2422C80.9484 12.5234 82.2688 11.1953 83.9563 10.2578C85.6438 9.30469 87.5734 8.82812 89.7453 8.82812ZM89.7453 12.2266C87.8234 12.2266 86.2297 12.7188 84.9641 13.7031C83.7141 14.6719 82.8938 16.0234 82.5031 17.7578H96.8234C96.4953 15.9609 95.7375 14.5938 94.55 13.6562C93.3781 12.7031 91.7766 12.2266 89.7453 12.2266Z" fill="black"/>
<path d="M124.095 0.25C124.627 0.25 125.002 0.375 125.22 0.625C125.455 0.859375 125.572 1.26562 125.572 1.84375V27.8125H127.494C128.025 27.8125 128.4 27.9375 128.619 28.1875C128.853 28.4219 128.97 28.8281 128.97 29.4062C128.97 29.9844 128.853 30.3984 128.619 30.6484C128.4 30.8828 128.025 31 127.494 31H123.767C123.236 31 122.853 30.8828 122.619 30.6484C122.4 30.3984 122.291 29.9844 122.291 29.4062V27.5312C121.306 28.8125 120.166 29.7969 118.869 30.4844C117.572 31.1719 116.158 31.5156 114.627 31.5156C112.689 31.5156 110.955 31.0625 109.423 30.1562C107.892 29.2344 106.689 27.9219 105.814 26.2188C104.939 24.5 104.502 22.4844 104.502 20.1719C104.502 17.8594 104.939 15.8516 105.814 14.1484C106.689 12.4297 107.892 11.1172 109.423 10.2109C110.955 9.28906 112.689 8.82812 114.627 8.82812C117.564 8.82812 120.041 10.1172 122.056 12.6953V3.4375H118.259C117.728 3.4375 117.345 3.32031 117.111 3.08594C116.892 2.83594 116.783 2.42188 116.783 1.84375C116.783 1.26562 116.892 0.859375 117.111 0.625C117.345 0.375 117.728 0.25 118.259 0.25H124.095ZM114.861 12.2969C113.47 12.2969 112.275 12.6328 111.275 13.3047C110.275 13.9609 109.509 14.8828 108.978 16.0703C108.463 17.2578 108.205 18.625 108.205 20.1719C108.205 21.7188 108.463 23.0859 108.978 24.2734C109.509 25.4609 110.275 26.3906 111.275 27.0625C112.275 27.7188 113.47 28.0469 114.861 28.0469C116.252 28.0469 117.486 27.7344 118.564 27.1094C119.658 26.4844 120.509 25.5781 121.119 24.3906C121.744 23.2031 122.056 21.7969 122.056 20.1719C122.056 18.5469 121.744 17.1406 121.119 15.9531C120.509 14.7656 119.658 13.8594 118.564 13.2344C117.486 12.6094 116.252 12.2969 114.861 12.2969Z" fill="black"/>
<path d="M142.297 23.9688C143.422 23.9688 144.227 24.0859 144.711 24.3203C145.211 24.5391 145.461 24.9141 145.461 25.4453V29.7578C145.461 30.2891 145.211 30.6719 144.711 30.9062C144.227 31.125 143.422 31.2344 142.297 31.2344C141.172 31.2344 140.359 31.125 139.859 30.9062C139.375 30.6719 139.133 30.2891 139.133 29.7578V25.4453C139.133 24.9141 139.375 24.5391 139.859 24.3203C140.359 24.0859 141.172 23.9688 142.297 23.9688Z" fill="#111111"/>
</svg>
