<svg width="45" height="45" viewBox="0 0 45 45" fill="none" xmlns="http://www.w3.org/2000/svg">
<rect width="45" height="45" fill="black"/>
<path d="M26.7016 36.6251C26.7016 37.0253 26.989 37.5093 27.7676 37.3697C33.8855 35.3221 38.0382 29.4679 38.029 22.6365C38.029 14.0925 31.1325 7.60547 22.623 7.60547C14.1136 7.60547 7.60645 14.0925 7.60645 22.6365C7.60645 29.4679 11.889 35.3128 18.0068 37.3697C18.7947 37.5093 19.0728 37.0253 19.0728 36.6251C19.0728 36.2435 19.0543 34.1401 19.0543 32.8464C19.0543 32.8464 14.7532 33.7771 13.8541 31.0129C13.8541 31.0129 13.1496 29.2259 12.1485 28.7606C12.1485 28.7606 10.7488 27.7926 12.2505 27.8112C12.2505 27.8112 13.7707 27.9322 14.6142 29.4028C15.9583 31.7854 18.2108 31.0967 19.0914 30.6965C19.2304 29.7099 19.629 29.0212 20.0739 28.621C16.6442 28.2394 13.1867 27.7368 13.1867 21.8175C13.1867 20.1236 13.6502 19.2766 14.6327 18.1877C14.4659 17.7782 13.9468 16.1308 14.7903 13.9995C16.0788 13.5993 19.0265 15.6654 19.0265 15.6654C20.2501 15.3211 21.5756 15.1442 22.8826 15.1442C24.1896 15.1442 25.5151 15.3211 26.7387 15.6654C26.7387 15.6654 29.6864 13.5993 30.9749 13.9995C31.8184 16.1401 31.29 17.7875 31.1325 18.1877C32.115 19.2766 32.7175 20.1236 32.7175 21.8175C32.7175 27.7647 29.1024 28.2394 25.6727 28.621C26.2382 29.1049 26.7202 30.0263 26.7202 31.4783C26.7202 33.5537 26.7016 36.1225 26.7016 36.6251Z" fill="white"/>
<path d="M18.3127 31.5248C18.3313 31.6458 18.4981 31.7202 18.6742 31.683C18.8596 31.6458 18.9801 31.5248 18.9523 31.4038C18.9338 31.2828 18.7669 31.2083 18.5908 31.227C18.4147 31.2642 18.2942 31.3852 18.3127 31.5248Z" fill="white"/>
<path d="M17.4692 31.8226C17.6546 31.8226 17.7936 31.7202 17.7936 31.5992C17.7936 31.4596 17.6268 31.3573 17.4507 31.3759C17.2653 31.3759 17.1262 31.4783 17.1262 31.5992C17.1262 31.7388 17.2653 31.8412 17.4692 31.8226Z" fill="white"/>
<path d="M16.1437 31.6179C16.3012 31.6737 16.4866 31.6179 16.5237 31.4969C16.5701 31.3759 16.4496 31.2363 16.2642 31.1804C16.1066 31.1432 15.9212 31.199 15.8841 31.32C15.847 31.441 15.9675 31.5806 16.1437 31.6179Z" fill="white"/>
<path d="M14.985 30.9384C15.124 31.078 15.3001 31.0967 15.3836 30.9943C15.467 30.9198 15.4206 30.7337 15.3001 30.6127C15.1611 30.4731 14.985 30.4545 14.9015 30.5568C14.8089 30.6406 14.8459 30.8174 14.985 30.9384Z" fill="white"/>
<path d="M14.1971 30.0077C14.299 30.1473 14.4566 30.2032 14.54 30.1473C14.642 30.0729 14.642 29.9053 14.54 29.7657C14.4566 29.6261 14.299 29.561 14.1971 29.6447C14.0951 29.7099 14.0951 29.8681 14.1971 30.0077Z" fill="white"/>
<path d="M13.6131 29.1887C13.7151 29.2818 13.8541 29.3283 13.9375 29.2445C14.0209 29.1794 14.0024 29.0398 13.9004 28.9188C13.7985 28.8257 13.6594 28.7792 13.576 28.8629C13.4926 28.9281 13.5111 29.0677 13.6131 29.1887Z" fill="white"/>
<path d="M13.0569 28.593C13.1589 28.6582 13.2794 28.6396 13.3165 28.5558C13.3535 28.4814 13.2979 28.379 13.1774 28.3138C13.0569 28.2673 12.955 28.2952 12.9179 28.3511C12.8808 28.4348 12.9364 28.5372 13.0569 28.593Z" fill="white"/>
</svg>
