<svg width="45" height="45" viewBox="0 0 45 45" fill="none" xmlns="http://www.w3.org/2000/svg">
<rect width="45" height="45" fill="black"/>
<path d="M8.10938 38.028H14.4102H14.4197V17.7019H8.10938V38.028Z" fill="white"/>
<path d="M7.60645 11.2657C7.60645 13.2812 9.2386 14.9259 11.2598 14.9259C13.281 14.9259 14.9132 13.2907 14.9132 11.2657C14.9132 9.25019 13.2715 7.60547 11.2598 7.60547C9.2386 7.60547 7.60645 9.25019 7.60645 11.2657Z" fill="white"/>
<path d="M31.7281 38.028H38.029V26.8858C38.029 21.4097 36.8428 17.1981 30.4661 17.1981C27.401 17.1981 25.3419 18.8808 24.4973 20.478H24.4119V17.7019H18.3673V38.028H24.6681V27.9696C24.6681 25.3171 25.171 22.7502 28.4543 22.7502C31.6807 22.7502 31.7281 25.7829 31.7281 28.1407V38.028Z" fill="white"/>
</svg>
