<svg width="45" height="45" viewBox="0 0 45 45" fill="none" xmlns="http://www.w3.org/2000/svg">
<rect width="45" height="45" fill="black"/>
<path d="M17.1672 27.0589H17.8707C17.9609 27.5655 18.042 28.2077 18.1142 28.9857C18.1863 29.7456 18.2044 30.4873 18.1683 31.211C17.8977 31.4281 17.5731 31.609 17.1943 31.7538C16.8155 31.8804 16.4097 31.989 15.9768 32.0794C15.5619 32.1699 15.129 32.2332 14.6781 32.2694C14.2452 32.3056 13.8304 32.3237 13.4336 32.3237C11.9184 32.3237 10.5657 32.1337 9.37522 31.7538C8.18477 31.3558 7.17469 30.7587 6.34499 29.9627C5.53332 29.1666 4.90202 28.1535 4.45109 26.9232C4.0182 25.6749 3.80176 24.2004 3.80176 22.4997C3.80176 20.7267 4.04526 19.2251 4.53226 17.9948C5.01926 16.7465 5.67761 15.7333 6.50732 14.9554C7.33703 14.1593 8.30201 13.5804 9.40227 13.2185C10.5025 12.8567 11.6569 12.6758 12.8654 12.6758C14.0558 12.6758 15.0569 12.7572 15.8686 12.92C16.6802 13.0648 17.3927 13.2909 18.006 13.5985C18.006 13.8879 17.9969 14.2317 17.9789 14.6297C17.9609 15.0096 17.9338 15.4167 17.8977 15.8509C17.8617 16.2851 17.8166 16.7103 17.7625 17.1264C17.7084 17.5425 17.6542 17.9225 17.6001 18.2662H16.8967L15.4898 14.3583C15.2914 14.2498 14.9577 14.1774 14.4887 14.1412C14.0378 14.105 13.5869 14.087 13.136 14.087C12.2341 14.087 11.3773 14.2588 10.5657 14.6026C9.77203 14.9282 9.06859 15.4439 8.45533 16.1494C7.8601 16.8369 7.38212 17.7144 7.02138 18.7818C6.66064 19.8312 6.48027 21.0705 6.48027 22.4997C6.48027 23.7843 6.6426 24.9512 6.96727 26.0005C7.29193 27.0318 7.7609 27.9183 8.37416 28.66C8.98742 29.3837 9.73596 29.9446 10.6198 30.3426C11.5036 30.7225 12.5047 30.9125 13.623 30.9125C14.2182 30.9125 14.7142 30.8673 15.111 30.7768C15.5078 30.6863 15.7694 30.5687 15.8956 30.424L17.1672 27.0589Z" fill="white"/>
<path d="M33.7944 31.998H28.0045V31.3196C28.1849 31.211 28.4013 31.1025 28.6538 30.9939C28.9244 30.8673 29.24 30.7587 29.6008 30.6683V24.3994C29.6008 23.6757 29.5647 23.0244 29.4926 22.4454C29.4384 21.8665 29.3212 21.3871 29.1408 21.0071C28.9785 20.6091 28.735 20.3106 28.4103 20.1116C28.0857 19.8945 27.6618 19.7859 27.1387 19.7859C26.7419 19.7859 26.3721 19.8673 26.0294 20.0302C25.7048 20.193 25.4072 20.4101 25.1366 20.6815C24.8841 20.9529 24.6586 21.2604 24.4602 21.6042C24.2798 21.9479 24.1355 22.3098 24.0273 22.6897V30.6683C24.3159 30.7587 24.5865 30.8582 24.839 30.9668C25.1095 31.0572 25.3711 31.1748 25.6236 31.3196V31.998H19.8066V31.3196C20.0592 31.1929 20.3387 31.0753 20.6454 30.9668C20.952 30.8582 21.2676 30.7587 21.5923 30.6683V20.003L19.8066 19.7859V19.0803C20.3838 18.8271 20.97 18.628 21.5653 18.4833C22.1785 18.3205 22.7737 18.1938 23.3509 18.1034H24.0273V21.17H24.0544C24.343 20.3196 24.83 19.596 25.5154 18.9989C26.2188 18.4019 27.0846 18.1034 28.1127 18.1034C28.5456 18.1034 28.9605 18.1486 29.3573 18.2391C29.7541 18.3295 30.1239 18.5014 30.4666 18.7547C30.8093 18.9899 31.0979 19.3246 31.3323 19.7588C31.5668 20.193 31.7382 20.7538 31.8464 21.4413C32.1711 20.4463 32.6941 19.6412 33.4156 19.0261C34.1371 18.4109 35.039 18.1034 36.1212 18.1034C36.7886 18.1034 37.3657 18.1938 37.8527 18.3748C38.3578 18.5376 38.7726 18.8361 39.0973 19.2703C39.422 19.7045 39.6565 20.2925 39.8008 21.0343C39.9631 21.776 40.0443 22.7168 40.0443 23.8566V30.6683C40.6575 30.7768 41.2527 30.9939 41.8299 31.3196V31.998H36.013V31.3196C36.5541 31.0301 37.0862 30.813 37.6092 30.6683V23.9109C37.6092 23.2596 37.5732 22.6806 37.501 22.1741C37.4469 21.6675 37.3297 21.2423 37.1493 20.8986C36.9689 20.5367 36.7164 20.2654 36.3917 20.0844C36.0671 19.8854 35.6342 19.7859 35.0931 19.7859C34.2273 19.7859 33.5509 20.0844 33.0639 20.6815C32.5949 21.2785 32.2522 22.0384 32.0358 22.9611V30.6683C32.6671 30.8492 33.2533 31.0663 33.7944 31.3196V31.998Z" fill="white"/>
</svg>
