<svg width="22" height="23" viewBox="0 0 22 23" fill="none" xmlns="http://www.w3.org/2000/svg">
<path fill-rule="evenodd" clip-rule="evenodd" d="M17 9.5C17 13.6421 13.6421 17 9.5 17C5.35786 17 2 13.6421 2 9.5C2 5.35786 5.35786 2 9.5 2C13.6421 2 17 5.35786 17 9.5ZM14.6537 17.4819C13.1692 18.4424 11.3997 19 9.5 19C4.25329 19 0 14.7467 0 9.5C0 4.25329 4.25329 0 9.5 0C14.7467 0 19 4.25329 19 9.5C19 12.1233 17.9367 14.4983 16.2176 16.2174L21.0001 20.9999C21.3906 21.3904 21.3906 22.0236 21.0001 22.4141C20.6096 22.8047 19.9764 22.8047 19.5859 22.4141L14.6537 17.4819Z" fill="black"/>
</svg>
