<svg width="22" height="37" viewBox="0 0 22 37" fill="none" xmlns="http://www.w3.org/2000/svg">
<path fill-rule="evenodd" clip-rule="evenodd" d="M7 6C7 3.79086 8.79086 2 11 2C13.2091 2 15 3.79086 15 6V7H7V6ZM5 9V11.5C5 12.0523 5.44772 12.5 6 12.5C6.55228 12.5 7 12.0523 7 11.5V9H15V11.5C15 12.0523 15.4477 12.5 16 12.5C16.5523 12.5 17 12.0523 17 11.5V9H19C19.5523 9 20 9.44772 20 10V27C20 27.5523 19.5523 28 19 28H3C2.44772 28 2 27.5523 2 27V10C2 9.44772 2.44772 9 3 9H5ZM5 7V6C5 2.68629 7.68629 0 11 0C14.3137 0 17 2.68629 17 6V7H19C20.6569 7 22 8.34315 22 10V27C22 28.6569 20.6569 30 19 30H3C1.34315 30 0 28.6569 0 27V10C0 8.34315 1.34315 7 3 7H5Z" fill="black"/>
</svg>
